<svg width="178" height="30" viewBox="0 0 178 30" fill="none" xmlns="http://www.w3.org/2000/svg">
<path d="M0.818182 24V0.727272H3.63636V11.0909H16.0455V0.727272H18.8636V24H16.0455V13.5909H3.63636V24H0.818182ZM31.4602 24.3636C29.7784 24.3636 28.3277 23.9924 27.108 23.25C25.8958 22.5 24.9602 21.4545 24.3011 20.1136C23.6496 18.7652 23.3239 17.197 23.3239 15.4091C23.3239 13.6212 23.6496 12.0455 24.3011 10.6818C24.9602 9.31061 25.8769 8.24242 27.0511 7.47727C28.233 6.70455 29.6117 6.31818 31.1875 6.31818C32.0966 6.31818 32.9943 6.4697 33.8807 6.77273C34.767 7.07576 35.5739 7.56818 36.3011 8.25C37.0284 8.92424 37.608 9.81818 38.0398 10.9318C38.4716 12.0455 38.6875 13.4167 38.6875 15.0455V16.1818H25.233V13.8636H35.9602C35.9602 12.8788 35.7633 12 35.3693 11.2273C34.983 10.4545 34.4299 9.8447 33.7102 9.39773C32.9981 8.95076 32.1572 8.72727 31.1875 8.72727C30.1193 8.72727 29.1951 8.99242 28.4148 9.52273C27.642 10.0455 27.0473 10.7273 26.6307 11.5682C26.214 12.4091 26.0057 13.3106 26.0057 14.2727V15.8182C26.0057 17.1364 26.233 18.2538 26.6875 19.1705C27.1496 20.0795 27.7898 20.7727 28.608 21.25C29.4261 21.7197 30.3769 21.9545 31.4602 21.9545C32.1648 21.9545 32.8011 21.8561 33.3693 21.6591C33.9451 21.4545 34.4413 21.1515 34.858 20.75C35.2746 20.3409 35.5966 19.8333 35.8239 19.2273L38.4148 19.9545C38.142 20.8333 37.6837 21.6061 37.0398 22.2727C36.3958 22.9318 35.6004 23.447 34.6534 23.8182C33.7064 24.1818 32.642 24.3636 31.4602 24.3636ZM45.4489 0.727272V24H42.767V0.727272H45.4489ZM53.0426 0.727272V24H50.3608V0.727272H53.0426ZM65.0455 24.3636C63.4697 24.3636 62.0871 23.9886 60.8977 23.2386C59.7159 22.4886 58.7917 21.4394 58.125 20.0909C57.4659 18.7424 57.1364 17.1667 57.1364 15.3636C57.1364 13.5455 57.4659 11.9583 58.125 10.6023C58.7917 9.24621 59.7159 8.19318 60.8977 7.44318C62.0871 6.69318 63.4697 6.31818 65.0455 6.31818C66.6212 6.31818 68 6.69318 69.1818 7.44318C70.3712 8.19318 71.2955 9.24621 71.9545 10.6023C72.6212 11.9583 72.9545 13.5455 72.9545 15.3636C72.9545 17.1667 72.6212 18.7424 71.9545 20.0909C71.2955 21.4394 70.3712 22.4886 69.1818 23.2386C68 23.9886 66.6212 24.3636 65.0455 24.3636ZM65.0455 21.9545C66.2424 21.9545 67.2273 21.6477 68 21.0341C68.7727 20.4205 69.3447 19.6136 69.7159 18.6136C70.0871 17.6136 70.2727 16.5303 70.2727 15.3636C70.2727 14.197 70.0871 13.1098 69.7159 12.1023C69.3447 11.0947 68.7727 10.2803 68 9.65909C67.2273 9.03788 66.2424 8.72727 65.0455 8.72727C63.8485 8.72727 62.8636 9.03788 62.0909 9.65909C61.3182 10.2803 60.7462 11.0947 60.375 12.1023C60.0038 13.1098 59.8182 14.197 59.8182 15.3636C59.8182 16.5303 60.0038 17.6136 60.375 18.6136C60.7462 19.6136 61.3182 20.4205 62.0909 21.0341C62.8636 21.6477 63.8485 21.9545 65.0455 21.9545ZM90.6392 24L84.2756 0.727272H87.1392L92.0028 19.6818H92.2301L97.1847 0.727272H100.366L105.321 19.6818H105.548L110.412 0.727272H113.276L106.912 24H104.003L98.8665 5.45454H98.6847L93.5483 24H90.6392ZM121.889 24.3636C120.313 24.3636 118.931 23.9886 117.741 23.2386C116.56 22.4886 115.635 21.4394 114.969 20.0909C114.31 18.7424 113.98 17.1667 113.98 15.3636C113.98 13.5455 114.31 11.9583 114.969 10.6023C115.635 9.24621 116.56 8.19318 117.741 7.44318C118.931 6.69318 120.313 6.31818 121.889 6.31818C123.465 6.31818 124.844 6.69318 126.026 7.44318C127.215 8.19318 128.139 9.24621 128.798 10.6023C129.465 11.9583 129.798 13.5455 129.798 15.3636C129.798 17.1667 129.465 18.7424 128.798 20.0909C128.139 21.4394 127.215 22.4886 126.026 23.2386C124.844 23.9886 123.465 24.3636 121.889 24.3636ZM121.889 21.9545C123.086 21.9545 124.071 21.6477 124.844 21.0341C125.616 20.4205 126.188 19.6136 126.56 18.6136C126.931 17.6136 127.116 16.5303 127.116 15.3636C127.116 14.197 126.931 13.1098 126.56 12.1023C126.188 11.0947 125.616 10.2803 124.844 9.65909C124.071 9.03788 123.086 8.72727 121.889 8.72727C120.692 8.72727 119.707 9.03788 118.935 9.65909C118.162 10.2803 117.59 11.0947 117.219 12.1023C116.848 13.1098 116.662 14.197 116.662 15.3636C116.662 16.5303 116.848 17.6136 117.219 18.6136C117.59 19.6136 118.162 20.4205 118.935 21.0341C119.707 21.6477 120.692 21.9545 121.889 21.9545ZM133.892 24V6.54545H136.483V9.18182H136.665C136.983 8.31818 137.559 7.61742 138.392 7.07954C139.225 6.54167 140.165 6.27273 141.21 6.27273C141.407 6.27273 141.653 6.27651 141.949 6.28409C142.244 6.29167 142.468 6.30303 142.619 6.31818V9.04545C142.528 9.02273 142.32 8.98864 141.994 8.94318C141.676 8.89015 141.339 8.86364 140.983 8.86364C140.134 8.86364 139.377 9.04167 138.71 9.39773C138.051 9.74621 137.528 10.2311 137.142 10.8523C136.763 11.4659 136.574 12.1667 136.574 12.9545V24H133.892ZM148.48 0.727272V24H145.798V0.727272H148.48ZM159.983 24.3636C158.528 24.3636 157.244 23.9962 156.131 23.2614C155.017 22.5189 154.146 21.4735 153.517 20.125C152.888 18.7689 152.574 17.1667 152.574 15.3182C152.574 13.4848 152.888 11.8939 153.517 10.5455C154.146 9.19697 155.021 8.1553 156.142 7.42045C157.263 6.68561 158.559 6.31818 160.028 6.31818C161.165 6.31818 162.063 6.50758 162.722 6.88636C163.388 7.25758 163.896 7.68182 164.244 8.15909C164.6 8.62879 164.877 9.01515 165.074 9.31818H165.301V0.727272H167.983V24H165.392V21.3182H165.074C164.877 21.6364 164.597 22.0379 164.233 22.5227C163.869 23 163.35 23.428 162.676 23.8068C162.002 24.178 161.104 24.3636 159.983 24.3636ZM160.347 21.9545C161.422 21.9545 162.331 21.6742 163.074 21.1136C163.816 20.5455 164.381 19.7614 164.767 18.7614C165.153 17.7538 165.347 16.5909 165.347 15.2727C165.347 13.9697 165.157 12.8295 164.778 11.8523C164.4 10.8674 163.839 10.1023 163.097 9.55682C162.354 9.00379 161.438 8.72727 160.347 8.72727C159.21 8.72727 158.263 9.01894 157.506 9.60227C156.756 10.178 156.191 10.9621 155.812 11.9545C155.441 12.9394 155.256 14.0455 155.256 15.2727C155.256 16.5152 155.445 17.6439 155.824 18.6591C156.21 19.6667 156.778 20.4697 157.528 21.0682C158.286 21.6591 159.225 21.9545 160.347 21.9545ZM177.267 20.8182L177.085 22.0455C176.956 22.9091 176.759 23.8333 176.494 24.8182C176.237 25.803 175.968 26.7311 175.688 27.6023C175.407 28.4735 175.176 29.1667 174.994 29.6818H172.949C173.047 29.197 173.176 28.5568 173.335 27.7614C173.494 26.9659 173.653 26.0758 173.812 25.0909C173.979 24.1136 174.116 23.1136 174.222 22.0909L174.358 20.8182H177.267Z" fill="black"/>
</svg>
